<svg width="175" height="244" viewBox="0 0 175 244" fill="none" xmlns="http://www.w3.org/2000/svg">
<g opacity="0.14" clip-path="url(#clip0_305_4016)">
<path d="M35.8998 -150C35.8998 -150 -100 33 158 84C349.9 122 422.4 243 422.4 243" stroke="#3980FD" stroke-miterlimit="10"/>
<path d="M54.8996 -152.4C54.8996 -152.4 -74.3004 24.7 171.1 75.6C352.8 113.3 423.2 228.3 426.5 229.1" stroke="#3980FD" stroke-miterlimit="10"/>
<path d="M73.8997 -154.9C73.8997 -154.9 -48.7003 16.2 184.2 67.1C355.7 104.6 423.9 213.6 430.5 215.1" stroke="#3980FD" stroke-miterlimit="10"/>
<path d="M92.9 -157.4C92.9 -157.4 -23.1 7.7 197.4 58.6C358.7 95.9 424.7 198.8 434.6 201.1" stroke="#3980FD" stroke-miterlimit="10"/>
<path d="M111.9 -159.8C111.9 -159.8 2.50011 -0.699982 210.5 50.3C361.6 87.3 425.4 184.2 438.6 187.4" stroke="#3980FD" stroke-miterlimit="10"/>
<path d="M130.9 -162.3C130.9 -162.3 28.1002 -9.19998 223.6 41.8C364.4 78.5 426.1 169.5 442.6 173.4" stroke="#3980FD" stroke-miterlimit="10"/>
<path d="M149.899 -164.8C149.899 -164.8 53.6994 -17.7 236.699 33.3C367.299 69.7 426.799 154.7 446.599 159.4" stroke="#3980FD" stroke-miterlimit="10"/>
<path d="M168.9 -167.3C168.9 -167.3 79.2995 -26.3 249.8 24.8C370.2 60.9 427.6 140 450.7 145.4" stroke="#3980FD" stroke-miterlimit="10"/>
<path d="M187.9 -169.7C187.9 -169.7 104.8 -34.8 262.9 16.4C373.1 52.1 428.2 125.3 454.6 131.5" stroke="#3980FD" stroke-miterlimit="10"/>
</g>
<defs>
<clipPath id="clip0_305_4016">
<rect width="491" height="435.1" fill="white" transform="translate(0 -192)"/>
</clipPath>
</defs>
</svg>
