<svg width="396" height="868" viewBox="0 0 396 868" fill="none" xmlns="http://www.w3.org/2000/svg">
<g clip-path="url(#clip0_306_3527)">
<path d="M-163 53.1C-163 53.1 393.6 -58.2 395 239.1C396.3 535.1 -251 627.1 27.9 1017.1" stroke="white" stroke-opacity="0.14" stroke-miterlimit="10"/>
<path d="M-169 31.9C-169 31.9 384.6 -51.3 367.9 255.1C351.2 560.3 -225.4 659.3 37.1 1026.3" stroke="white" stroke-opacity="0.14" stroke-miterlimit="10"/>
<path d="M-175.1 10.6C-175.1 10.6 375.4 -44.5001 340.7 271.1C306 585.6 -199.8 691.5 46.2999 1035.6" stroke="white" stroke-opacity="0.14" stroke-miterlimit="10"/>
<path d="M-181.1 -10.6C-181.1 -10.6 366.3 -37.6001 313.6 287.1C260.9 610.8 -174.2 723.6 55.4999 1044.8" stroke="white" stroke-opacity="0.14" stroke-miterlimit="10"/>
<path d="M-187.2 -31.8C-187.2 -31.8 357.1 -30.8 286.3 303.1C215.5 636 -148.7 755.8 64.6003 1054" stroke="white" stroke-opacity="0.14" stroke-miterlimit="10"/>
<path d="M-193.3 -53.1C-193.3 -53.1 347.9 -24.0001 259.1 319.1C170.3 661.3 -123.2 788 73.7002 1063.3" stroke="white" stroke-opacity="0.14" stroke-miterlimit="10"/>
<path d="M-199.3 -74.3C-199.3 -74.3 338.8 -17.1001 232 335.1C125.2 686.5 -97.4998 820.2 83.0002 1072.5" stroke="white" stroke-opacity="0.14" stroke-miterlimit="10"/>
<path d="M-205.4 -95.5C-205.4 -95.5 329.6 -10.2 204.8 351.1C80.0001 711.7 -71.9999 852.3 92.1001 1081.7" stroke="white" stroke-opacity="0.14" stroke-miterlimit="10"/>
<path d="M-211.4 -116.8C-211.4 -116.8 320.5 -3.50009 177.7 367.1C34.8001 737 -46.2999 884.5 101.3 1091" stroke="white" stroke-opacity="0.14" stroke-miterlimit="10"/>
<path d="M-217.5 -138C-217.5 -138 311.4 3.39993 150.5 383.1C-10.4 762.2 -20.8 916.7 110.5 1100.2" stroke="white" stroke-opacity="0.14" stroke-miterlimit="10"/>
<path d="M-223.5 -159.3C-223.5 -159.3 302.3 10.1999 123.4 399.1C-55.5 787.5 4.90001 948.9 119.7 1109.5" stroke="white" stroke-opacity="0.14" stroke-miterlimit="10"/>
<path d="M-229.6 -180.5C-229.6 -180.5 293.1 17.0999 96.0999 415.1C-100.8 812.7 30.2999 981 128.8 1118.7" stroke="white" stroke-opacity="0.14" stroke-miterlimit="10"/>
<path d="M-235.6 -201.7C-235.6 -201.7 284 23.9 68.9999 431.1C-146 837.9 55.9999 1013.2 138 1127.9" stroke="white" stroke-opacity="0.14" stroke-miterlimit="10"/>
<path d="M-241.7 -223C-241.7 -223 274.8 30.7 41.8003 447.1C-191.2 863.2 81.5003 1045.4 147.2 1137.2" stroke="white" stroke-opacity="0.14" stroke-miterlimit="10"/>
<path d="M-247.8 -244.2C-247.8 -244.2 265.6 37.6 14.6002 463.1C-236.4 888.4 107.1 1077.6 156.3 1146.4" stroke="white" stroke-opacity="0.14" stroke-miterlimit="10"/>
<path d="M-253.8 -265.4C-253.8 -265.4 256.5 44.5 -12.4998 479.1C-281.6 913.6 132.7 1109.7 165.5 1155.6" stroke="white" stroke-opacity="0.14" stroke-miterlimit="10"/>
<path d="M-259.9 -286.7C-259.9 -286.7 247.4 51.2 -39.6999 495.1C-326.8 938.9 158.3 1141.9 174.7 1164.9" stroke="white" stroke-opacity="0.14" stroke-miterlimit="10"/>
<path d="M-265.9 -307.9C-265.9 -307.9 238.3 58.1 -66.7999 511.1C-371.9 964.1 183.9 1174.1 183.9 1174.1" stroke="white" stroke-opacity="0.14" stroke-miterlimit="10"/>
</g>
<defs>
<clipPath id="clip0_306_3527">
<rect width="661.2" height="1482.2" fill="white" transform="translate(-266 -308)"/>
</clipPath>
</defs>
</svg>
