<svg width="370" height="49" viewBox="0 0 232 22" fill="none" xmlns="http://www.w3.org/2000/svg">
<path d="M17.9494 17.41V14.91H15.6694V0.769989H12.5294V14.91H5.06938C4.82938 14.91 4.35938 14.91 4.13937 14.65C3.92937 14.41 3.99937 13.91 3.99937 13.6V0.769989H0.859375V14.98C0.859375 15.6 0.929375 16.38 1.57937 16.93C2.14937 17.41 2.83937 17.41 3.51937 17.41H17.9494ZM30.9994 17.41V6.58999C30.9994 4.70999 29.5494 4.66999 29.1694 4.66999C28.5994 4.66999 27.9594 4.80999 27.4594 5.51999L21.8494 13.77C21.7494 13.91 21.6594 14.1 21.5194 14.1C21.3294 14.1 21.3294 13.98 21.3294 13.77L21.4394 4.80999H18.6594V15.77C18.6594 16.43 18.8494 17.55 20.4894 17.55C21.4394 17.55 21.8494 17.22 22.2994 16.55L27.8394 8.44999C28.0294 8.15999 28.1194 8.10999 28.1694 8.10999C28.3594 8.10999 28.3094 8.24999 28.3094 8.44999L28.2194 17.41H30.9994ZM40.1294 0.769989V4.80999H37.5594C36.2494 4.80999 34.4894 5.06999 33.4494 6.77999C32.6394 8.10999 32.5694 9.93999 32.5694 11.25C32.5694 12.82 32.7094 14.46 33.6094 15.69C34.7994 17.33 36.4894 17.41 37.6494 17.41H40.1294V21.45H42.9094V17.41H45.3794C46.5894 17.41 48.2294 17.33 49.4194 15.69C50.3694 14.39 50.4594 12.94 50.4594 11.25C50.4594 9.84999 50.4594 8.17999 49.5894 6.77999C48.5194 5.06999 46.7994 4.80999 45.4694 4.80999H42.9094V0.769989H40.1294ZM40.1294 15.27H38.7494C37.2294 15.27 36.4194 14.98 35.9394 14.15C35.4694 13.36 35.4394 12.34 35.4394 11.27C35.4394 9.43999 35.6294 8.51999 36.0394 7.94999C36.7294 7.01999 37.9394 6.94999 38.6994 6.94999H40.1294V15.27ZM42.9094 15.27V6.94999H44.3294C45.1194 6.94999 46.3294 7.01999 46.9894 7.94999C47.4694 8.60999 47.5894 9.69999 47.5894 11.27C47.5894 12.34 47.5694 13.36 47.0894 14.15C46.6094 14.98 45.8094 15.27 44.2894 15.27H42.9094ZM54.8094 17.41H58.3294C59.6194 17.41 61.5594 17.31 62.7494 15.6C63.6594 14.32 63.7494 12.51 63.7494 10.85C63.7494 9.46999 63.6994 7.51999 62.4194 6.18999C61.2094 4.92999 59.5194 4.80999 58.7094 4.80999H54.3094C53.8394 4.80999 53.2194 4.85999 52.7494 5.20999C52.4394 5.44999 52.0294 5.92999 52.0294 6.75999V21.45H54.8094V17.41ZM54.8094 15.27V7.53999C54.8094 7.39999 54.8594 7.25999 54.9994 7.10999C55.0994 7.03999 55.2694 6.94999 55.3794 6.94999H58.1194C59.3494 6.94999 60.1894 7.56999 60.5394 8.36999C60.6794 8.70999 60.8694 9.36999 60.8694 11.08C60.8694 12.96 60.6094 13.72 60.3494 14.1C60.0394 14.6 59.3494 15.27 57.9794 15.27H54.8094ZM71.6894 4.66999C70.1894 4.66999 67.9794 4.70999 66.5994 5.99999C65.1494 7.34999 64.9894 9.72999 64.9894 11.15C64.9894 12.44 65.1094 14.81 66.5994 16.19C67.9794 17.45 70.1894 17.55 71.6894 17.55C73.1394 17.55 75.4194 17.45 76.7794 16.19C77.6994 15.31 78.3894 13.72 78.3894 11.06C78.3894 9.72999 78.2194 7.34999 76.7794 5.99999C75.3994 4.70999 73.1894 4.66999 71.6894 4.66999ZM67.8594 11.13C67.8594 10.32 67.8594 8.70999 68.6494 7.79999C69.4294 6.89999 70.7894 6.80999 71.6894 6.80999C72.6894 6.80999 73.8994 6.89999 74.7094 7.79999C75.5894 8.77999 75.5194 10.2 75.5194 11.13C75.5194 12.22 75.5194 13.44 74.6794 14.36C73.8494 15.29 72.7294 15.41 71.6894 15.41C70.6894 15.41 69.4794 15.29 68.6694 14.36C67.8894 13.46 67.8594 12.18 67.8594 11.13ZM79.9594 15.55C79.9594 15.96 80.0094 16.57 80.4394 16.95C80.8594 17.36 81.5794 17.41 82.0994 17.41H88.0894C88.8294 17.41 89.8694 17.38 90.6294 16.62C91.4394 15.81 91.4894 14.51 91.4894 13.84C91.4894 13.17 91.4394 12.37 90.9394 11.75C90.6594 11.39 90.1094 11.01 89.3694 10.92V10.87C89.9894 10.8 90.5394 10.51 90.8694 10.13C91.3694 9.55999 91.4394 8.70999 91.4394 8.03999C91.4394 7.44999 91.3894 6.41999 90.7694 5.70999C89.9894 4.82999 88.7794 4.80999 87.9194 4.80999H82.2194C81.6694 4.80999 81.0494 4.85999 80.5294 5.30999C80.0094 5.75999 79.9594 6.32999 79.9594 6.77999V15.55ZM82.7394 9.81999V7.56999C82.7394 7.41999 82.7394 7.22999 82.9094 7.08999C83.0694 6.94999 83.2594 6.94999 83.4294 6.94999H87.0894C87.4694 6.94999 87.8694 6.96999 88.1794 7.25999C88.5394 7.56999 88.5594 8.01999 88.5594 8.39999C88.5594 8.72999 88.5194 9.12999 88.2094 9.43999C87.8694 9.77999 87.3994 9.81999 87.0394 9.81999H82.7394ZM82.7394 11.96H87.0894C87.3994 11.96 87.9194 11.99 88.2794 12.37C88.5894 12.7 88.6094 13.17 88.6094 13.56C88.6094 13.96 88.5894 14.53 88.2294 14.89C87.8994 15.22 87.3494 15.27 86.9494 15.27H83.4794C83.2594 15.27 83.0494 15.27 82.8794 15.08C82.7894 14.93 82.7394 14.7 82.7394 14.51V11.96ZM99.4294 4.66999C97.9294 4.66999 95.7194 4.70999 94.3394 5.99999C92.8894 7.34999 92.7194 9.72999 92.7194 11.15C92.7194 12.44 92.8394 14.81 94.3394 16.19C95.7194 17.45 97.9294 17.55 99.4294 17.55C100.879 17.55 103.159 17.45 104.509 16.19C105.439 15.31 106.129 13.72 106.129 11.06C106.129 9.72999 105.959 7.34999 104.509 5.99999C103.129 4.70999 100.919 4.66999 99.4294 4.66999ZM95.5994 11.13C95.5994 10.32 95.5994 8.70999 96.3794 7.79999C97.1694 6.89999 98.5194 6.80999 99.4294 6.80999C100.419 6.80999 101.639 6.89999 102.439 7.79999C103.319 8.77999 103.249 10.2 103.249 11.13C103.249 12.22 103.249 13.44 102.419 14.36C101.589 15.29 100.469 15.41 99.4294 15.41C98.4294 15.41 97.2094 15.29 96.4094 14.36C95.6194 13.46 95.5994 12.18 95.5994 11.13ZM120.029 17.41V6.58999C120.029 4.70999 118.579 4.66999 118.199 4.66999C117.629 4.66999 116.989 4.80999 116.489 5.51999L110.879 13.77C110.789 13.91 110.689 14.1 110.549 14.1C110.359 14.1 110.359 13.98 110.359 13.77L110.479 4.80999H107.699V15.77C107.699 16.43 107.889 17.55 109.529 17.55C110.479 17.55 110.879 17.22 111.329 16.55L116.869 8.44999C117.059 8.15999 117.159 8.10999 117.199 8.10999C117.389 8.10999 117.349 8.24999 117.349 8.44999L117.249 17.41H120.029ZM113.899 2.52999C113.349 2.52999 112.729 2.42999 112.259 1.95999C111.999 1.69999 111.759 1.23999 111.669 0.929989H109.499C109.759 1.83999 110.289 2.83999 110.859 3.33999C111.779 4.16999 113.039 4.25999 113.899 4.25999C114.759 4.25999 116.009 4.16999 116.939 3.33999C117.509 2.83999 118.039 1.83999 118.299 0.929989H116.129C116.039 1.23999 115.799 1.69999 115.539 1.95999C115.059 2.42999 114.449 2.52999 113.899 2.52999ZM129.609 4.80999C129.059 4.80999 128.449 4.80999 127.899 5.42999C127.449 5.94999 127.469 6.44999 127.469 6.89999V17.41H130.249V7.67999C130.249 7.46999 130.319 7.20999 130.439 7.08999C130.509 7.01999 130.679 6.94999 130.919 6.94999H135.619C135.769 6.94999 135.999 6.99999 136.119 7.08999C136.289 7.22999 136.289 7.51999 136.289 7.67999V17.41H139.069V6.89999C139.069 6.34999 139.049 5.87999 138.669 5.42999C138.189 4.85999 137.569 4.80999 136.929 4.80999H129.609ZM151.589 17.41V15.27H147.079C145.909 15.27 144.539 15.15 143.919 13.94C143.579 13.27 143.509 12.06 143.509 11.32C143.509 10.94 143.539 9.60999 143.729 8.93999C144.039 7.86999 144.939 6.94999 146.819 6.94999H151.309V4.80999H145.909C143.659 4.80999 142.589 5.63999 142.059 6.15999C140.659 7.60999 140.639 9.77999 140.639 11.27C140.639 13.06 140.729 14.62 141.779 15.86C142.919 17.22 144.579 17.41 145.529 17.41H151.589ZM165.499 17.41V6.58999C165.499 4.70999 164.049 4.66999 163.669 4.66999C163.099 4.66999 162.459 4.80999 161.959 5.51999L156.349 13.77C156.249 13.91 156.159 14.1 156.019 14.1C155.819 14.1 155.819 13.98 155.819 13.77L155.939 4.80999H153.159V15.77C153.159 16.43 153.349 17.55 154.989 17.55C155.939 17.55 156.349 17.22 156.799 16.55L162.339 8.44999C162.529 8.15999 162.619 8.10999 162.669 8.10999C162.859 8.10999 162.809 8.24999 162.809 8.44999L162.719 17.41H165.499ZM179.089 17.41L174.269 10.94L178.779 4.80999H175.599L172.649 9.12999L169.709 4.80999H166.519L171.059 10.94L166.209 17.41H169.489L172.649 12.75L175.809 17.41H179.089ZM186.179 4.66999C184.679 4.66999 182.469 4.70999 181.089 5.99999C179.639 7.34999 179.469 9.72999 179.469 11.15C179.469 12.44 179.589 14.81 181.089 16.19C182.469 17.45 184.679 17.55 186.179 17.55C187.629 17.55 189.909 17.45 191.259 16.19C192.189 15.31 192.879 13.72 192.879 11.06C192.879 9.72999 192.709 7.34999 191.259 5.99999C189.879 4.70999 187.669 4.66999 186.179 4.66999ZM182.349 11.13C182.349 10.32 182.349 8.70999 183.129 7.79999C183.919 6.89999 185.269 6.80999 186.179 6.80999C187.169 6.80999 188.389 6.89999 189.189 7.79999C190.069 8.77999 189.999 10.2 189.999 11.13C189.999 12.22 189.999 13.44 189.169 14.36C188.339 15.29 187.219 15.41 186.179 15.41C185.179 15.41 183.969 15.29 183.159 14.36C182.369 13.46 182.349 12.18 182.349 11.13ZM192.549 17.41H195.399L199.269 7.67999C199.319 7.56999 199.389 7.32999 199.509 7.32999C199.629 7.32999 199.699 7.56999 199.749 7.67999L203.619 17.41H206.469L201.359 5.70999C201.029 4.97999 200.269 4.66999 199.509 4.66999C198.749 4.66999 197.989 4.97999 197.659 5.70999L192.549 17.41ZM212.839 4.66999C211.349 4.66999 209.129 4.70999 207.759 5.99999C206.309 7.34999 206.139 9.72999 206.139 11.15C206.139 12.44 206.259 14.81 207.759 16.19C209.129 17.45 211.349 17.55 212.839 17.55C214.289 17.55 216.569 17.45 217.929 16.19C218.859 15.31 219.539 13.72 219.539 11.06C219.539 9.72999 219.379 7.34999 217.929 5.99999C216.549 4.70999 214.339 4.66999 212.839 4.66999ZM209.019 11.13C209.019 10.32 209.019 8.70999 209.799 7.79999C210.579 6.89999 211.939 6.80999 212.839 6.80999C213.839 6.80999 215.049 6.89999 215.859 7.79999C216.739 8.77999 216.669 10.2 216.669 11.13C216.669 12.22 216.669 13.44 215.839 14.36C215.009 15.29 213.889 15.41 212.839 15.41C211.839 15.41 210.629 15.29 209.819 14.36C209.039 13.46 209.019 12.18 209.019 11.13ZM223.889 17.41V7.94999C223.889 7.63999 223.869 7.39999 224.079 7.18999C224.199 7.06999 224.419 6.94999 224.649 6.94999H231.639V4.80999H222.869C222.349 4.80999 221.759 4.87999 221.379 5.46999C221.109 5.87999 221.109 6.37999 221.109 6.87999V17.41H223.889Z" fill="white"/>
</svg>
