<svg width="104" height="103" viewBox="0 0 104 103" fill="none" xmlns="http://www.w3.org/2000/svg">
<path fill-rule="evenodd" clip-rule="evenodd" d="M51.5098 0C79.9888 0 103.02 23.0883 103.02 51.5C103.02 79.9736 79.9269 103 51.5098 103C23.0308 103 0 79.9117 0 51.5C0 23.0883 23.0927 0 51.5098 0ZM38.5704 57.628L42.8423 61.899H34.2367C33.8652 60.9706 32.9366 60.3516 31.8841 60.3516C30.4601 60.3516 29.3457 61.5276 29.3457 62.8894C29.3457 64.3131 30.522 65.4273 31.8841 65.4273C32.9366 65.4273 33.8652 64.8083 34.2367 63.8798H65.6255V61.899H45.6902L39.4372 55.6472H28.9743C28.6028 54.7188 27.6741 54.0998 26.6217 54.0998C25.1977 54.0998 24.0833 55.2758 24.0833 56.6376C24.0833 58.0613 25.2596 59.1755 26.6217 59.1755C27.6741 59.1755 28.6028 58.5565 28.9743 57.628H38.5704ZM44.3282 50.0763L50.6431 56.39H51.0145H69.3401V54.3474H51.4479L45.133 48.0956H40.5516L33.2461 40.7915H28.7266C28.3552 39.863 27.4265 39.244 26.374 39.244C24.9501 39.244 23.8357 40.4201 23.8357 41.7819C23.8357 43.1436 25.012 44.3197 26.374 44.3197C27.4265 44.3197 28.3552 43.7007 28.7266 42.7722H32.3794L37.6418 48.0337H23.0927C22.7213 47.1052 21.7926 46.4862 20.7401 46.4862C19.3162 46.4862 18.2018 47.6623 18.2018 49.024C18.2018 50.4477 19.3781 51.5619 20.7401 51.5619C21.7926 51.5619 22.7213 50.9429 23.0927 50.0144H44.3282V50.0763ZM37.2084 75.2692C38.2609 75.2692 39.1896 74.6502 39.561 73.7218H53.8624V71.6791H39.561C39.1896 70.7506 38.2609 70.1316 37.2084 70.1316C35.7845 70.1316 34.6701 71.3077 34.6701 72.6695C34.6701 74.0932 35.7845 75.2692 37.2084 75.2692ZM37.2084 73.7218C37.7656 73.7218 38.2609 73.2266 38.2609 72.6695C38.2609 72.1124 37.7656 71.6172 37.2084 71.6172C36.6512 71.6172 36.1559 72.1124 36.1559 72.6695C36.1559 73.2885 36.6512 73.7218 37.2084 73.7218ZM31.8841 64.0036C32.4413 64.0036 32.9366 63.5084 32.9366 62.9513C32.9366 62.3942 32.4413 61.899 31.8841 61.899C31.3269 61.899 30.8316 62.3942 30.8316 62.9513C30.8316 63.5084 31.3269 64.0036 31.8841 64.0036ZM26.6217 57.6899C27.1789 57.6899 27.6741 57.1947 27.6741 56.6376C27.6741 56.0805 27.1789 55.5853 26.6217 55.5853C26.0645 55.5853 25.5692 56.0805 25.5692 56.6376C25.5692 57.1947 26.0645 57.6899 26.6217 57.6899ZM20.7401 50.1382C21.2973 50.1382 21.7926 49.643 21.7926 49.0859C21.7926 48.5289 21.2973 48.0337 20.7401 48.0337C20.1829 48.0337 19.6876 48.5289 19.6876 49.0859C19.6876 49.7049 20.121 50.1382 20.7401 50.1382ZM26.374 42.8341C26.9312 42.8341 27.4265 42.3389 27.4265 41.7819C27.4265 41.2248 26.9312 40.7296 26.374 40.7296C25.8168 40.7296 25.3215 41.2248 25.3215 41.7819C25.3215 42.3389 25.7549 42.8341 26.374 42.8341ZM46.6189 46.4243C47.6713 46.4243 48.6 45.8053 48.9715 44.8768H69.9592V42.8341H48.9715C48.6 41.9057 47.6713 41.2867 46.6189 41.2867C45.1949 41.2867 44.0805 42.4627 44.0805 43.8245C44.0186 45.2482 45.1949 46.4243 46.6189 46.4243ZM46.6189 44.9387C47.1761 44.9387 47.6713 44.4435 47.6713 43.8864C47.6713 43.3293 47.1761 42.8341 46.6189 42.8341C46.0617 42.8341 45.5664 43.3293 45.5664 43.8864C45.5045 44.4435 45.9997 44.9387 46.6189 44.9387ZM36.4655 37.5727C37.518 37.5727 38.4466 36.9537 38.8181 36.0252H62.5299V34.0445H38.8181C38.4466 33.116 37.518 32.497 36.4655 32.497C35.0415 32.497 33.9271 33.6731 33.9271 35.0349C33.9271 36.4585 35.0415 37.5727 36.4655 37.5727ZM36.4655 36.0871C37.0227 36.0871 37.518 35.5919 37.518 35.0349C37.518 34.4778 37.0227 33.9826 36.4655 33.9826C35.9083 33.9826 35.413 34.4778 35.413 35.0349C35.413 35.5919 35.9083 36.0871 36.4655 36.0871ZM35.0415 28.9069C36.094 28.9069 37.0227 28.2879 37.3941 27.3594H51.8813V25.3167H37.3941C37.0227 24.3882 36.094 23.7692 35.0415 23.7692C33.6176 23.7692 32.5032 24.9453 32.5032 26.3071C32.5032 27.7308 33.6176 28.9069 35.0415 28.9069ZM35.0415 27.4213C35.5987 27.4213 36.094 26.9261 36.094 26.369C36.094 25.8119 35.5987 25.3167 35.0415 25.3167C34.4843 25.3167 33.989 25.8119 33.989 26.369C33.989 26.9261 34.4224 27.4213 35.0415 27.4213ZM48.5381 18.2602C48.1047 17.5793 47.2999 17.146 46.4331 17.146C45.0092 17.146 43.8948 18.3221 43.8948 19.6839C43.8948 21.0457 45.0711 22.2218 46.4331 22.2218C47.7332 22.2218 48.7857 21.2933 48.9715 20.0553C51.3241 19.622 54.0481 19.5601 56.4008 19.8077C67.6066 21.1076 73.9834 26.8023 75.5312 37.387C75.7789 38.9345 75.7169 40.482 76.2741 41.8438C76.8313 43.0817 77.6362 44.1959 78.3172 45.1863C80.9794 48.9002 82.2176 48.6526 79.1839 51.1286C77.3266 52.6142 78.5648 52.7999 78.9982 54.0379C79.122 54.4093 79.2459 54.7188 78.9363 54.9664C78.441 55.3377 78.0076 55.5234 77.3266 56.0186C78.8125 57.3804 79.4316 57.2566 78.0695 59.2374C76.5218 61.9609 80.0507 65.4892 74.974 65.7987C67.8543 66.232 62.4061 69.3269 63.3967 78.2404H17.5208C11.7011 70.8744 8.23414 61.5895 8.23414 51.5C8.23414 39.5535 13.0632 28.7212 20.9259 20.9219C28.7885 13.0607 39.561 8.23257 51.5098 8.23257C63.4586 8.23257 74.293 13.0607 82.0938 20.9219C89.9564 28.7831 94.7855 39.5535 94.7855 51.5C94.7855 63.4465 89.9564 74.2789 82.0938 82.0781C74.2311 89.9393 63.4586 94.7674 51.5098 94.7674C41.1088 94.7674 31.5745 91.1154 24.0833 84.9874C24.1452 84.8017 24.1452 84.616 24.1452 84.4303C24.1452 83.0066 22.9689 81.8924 21.6069 81.8924C20.1829 81.8924 19.0685 83.0685 19.0685 84.4303C19.0685 85.854 20.2448 86.9682 21.6069 86.9682C22.0403 86.9682 22.4736 86.8444 22.8451 86.6587C30.6459 93.0343 40.6754 96.872 51.5098 96.872C64.0158 96.872 75.4074 91.7963 83.5796 83.5637C91.8138 75.3311 96.8904 64.0036 96.8904 51.5C96.8904 38.9964 91.8138 27.607 83.5796 19.4363C75.4074 11.2037 64.0777 6.12801 51.5098 6.12801C39.0038 6.12801 27.6122 11.2037 19.44 19.4363C11.2059 27.607 6.12917 38.9964 6.12917 51.5C6.12917 62.3942 9.96764 72.36 16.3445 80.1593H16.9636H65.5017L65.254 78.0547C64.8206 74.2788 65.6874 71.8029 67.359 70.2554C69.1544 68.646 71.8785 67.9033 75.0359 67.7176C79.3078 67.47 79.865 65.613 79.6792 63.1989C79.6792 62.8275 79.6173 62.518 79.5554 62.2085C79.4935 61.4657 79.3697 60.723 79.6173 60.2278C81.227 57.9994 81.2889 57.1947 80.3603 56.2043C81.2889 55.2758 81.0413 54.4093 80.7317 53.4808C80.6079 53.1094 80.4841 52.8618 80.3603 52.6142C84.1987 49.5192 83.7653 49.024 81.227 45.9291C80.8555 45.4339 80.3602 44.8768 79.803 44.134L79.6792 44.0102C79.0601 43.1436 78.3791 42.2151 77.9457 41.2248C77.6362 40.5439 77.5743 39.6773 77.5124 38.7488C77.4504 38.1917 77.3885 37.6965 77.3266 37.2632C76.5218 31.5066 74.3549 27.0499 70.826 23.8311C67.359 20.6124 62.5918 18.6935 56.5865 18.0126C54.9149 17.8269 53.0576 17.765 51.2622 17.9507C50.3335 17.9507 49.4048 18.0745 48.5381 18.2602ZM46.4331 20.7362C46.9903 20.7362 47.4856 20.241 47.4856 19.6839C47.4856 19.1268 46.9903 18.6316 46.4331 18.6316C45.8759 18.6316 45.3806 19.1268 45.3806 19.6839C45.3806 20.241 45.8759 20.7362 46.4331 20.7362ZM21.6069 85.4826C22.1641 85.4826 22.6594 84.9874 22.6594 84.4303C22.6594 83.8732 22.1641 83.378 21.6069 83.378C21.0497 83.378 20.5544 83.8732 20.5544 84.4303C20.5544 85.0493 20.9878 85.4826 21.6069 85.4826Z" fill="white"/>
</svg>
